# xmcd
#
# Track frame offsets:
#	150
#	14911
#	33065
#	48945
#	66155
#	82417
#	98924
#	111356
#	130604
#	148417
#	161928
#	180821
#	202067
#	220296
#	236240
#	252218
#	267240
#	283800
#	297532
#	315001
#	331051
#
# Disc length: 4663 seconds
#
# Revision: 0
# Processed by: cddbd v1.5.1PL0 Copyright (c) Steve Scherf et al.
# Submitted via: dBpowerAMP V4.0
#
DISCID=46123515
DTITLE=compilation - n/a
DYEAR=2005
DGENRE=Country
TTITLE0=hot mama
TTITLE1=help somebody
TTITLE2=we're from the country
TTITLE3=as good as i once was
TTITLE4=something moore
TTITLE5=baby girl
TTITLE6=goodnight sweetheart
TTITLE7=something to be proud of
TTITLE8=back where i come from
TTITLE9=where the blacktop ends
TTITLE10=i want to be your everything
TTITLE11=better life
TTITLE12=impossible
TTITLE13=hicktown
TTITLE14=jacked up
TTITLE15=i'd be better off in a pine box
TTITLE16=redneck woman
TTITLE17=if it wasn't for texas
TTITLE18=mississippi girl
TTITLE19=southern comfort
TTITLE20=alcohol
EXTD=carl
EXTT0=
EXTT1=
EXTT2=
EXTT3=
EXTT4=
EXTT5=
EXTT6=
EXTT7=
EXTT8=
EXTT9=
EXTT10=
EXTT11=
EXTT12=
EXTT13=
EXTT14=
EXTT15=
EXTT16=
EXTT17=
EXTT18=
EXTT19=
EXTT20=
PLAYORDER=
